<svg width="25" height="25" viewBox="0 0 25 25" fill="none" xmlns="http://www.w3.org/2000/svg">
<g id="Check">
<path id="Vector" d="M22.4277 7.58393L9.92768 20.0839C9.85512 20.1566 9.76896 20.2142 9.67412 20.2535C9.57928 20.2928 9.47762 20.3131 9.37495 20.3131C9.27228 20.3131 9.17062 20.2928 9.07577 20.2535C8.98093 20.2142 8.89477 20.1566 8.82221 20.0839L3.35346 14.6152C3.20687 14.4686 3.12451 14.2698 3.12451 14.0624C3.12451 13.8551 3.20687 13.6563 3.35346 13.5097C3.50006 13.3631 3.69888 13.2808 3.9062 13.2808C4.11351 13.2808 4.31234 13.3631 4.45893 13.5097L9.37495 18.4267L21.3222 6.47846C21.4688 6.33187 21.6676 6.24951 21.875 6.24951C22.0823 6.24951 22.2811 6.33187 22.4277 6.47846C22.5743 6.62506 22.6566 6.82388 22.6566 7.0312C22.6566 7.23851 22.5743 7.43734 22.4277 7.58393Z" fill="#17FFF9"/>
</g>
</svg>
