<svg width="68" height="54" viewBox="0 0 68 54" fill="none" xmlns="http://www.w3.org/2000/svg">
<path id="&#226;&#128;&#158;" d="M0 37.6494C0 27.753 5.01699 15.2032 15.051 0H27.7197C21.5117 10.3267 17.2887 19.1474 15.051 26.4622C18.7325 26.5339 21.9087 27.8964 24.5796 30.5498C27.2505 33.2749 28.586 36.4303 28.586 40.0159C28.586 43.8167 27.2144 47.0797 24.4713 49.8048C21.6561 52.6016 18.3716 54 14.6178 54C10.431 54 6.96603 52.494 4.22293 49.4821C1.40765 46.4701 0 42.5259 0 37.6494ZM39.414 37.6494C39.414 27.753 44.431 15.2032 54.465 0H67.1338C60.9257 10.3267 56.7028 19.1474 54.465 26.4622C58.1465 26.5339 61.3227 27.8964 63.9936 30.5498C66.6645 33.2749 68 36.4303 68 40.0159C68 43.8167 66.6285 47.0797 63.8854 49.8048C61.0701 52.6016 57.7856 54 54.0318 54C49.845 54 46.38 52.494 43.6369 49.4821C40.8217 46.4701 39.414 42.5259 39.414 37.6494Z" fill="#17FFF9"/>
</svg>
